<svg xmlns="http://www.w3.org/2000/svg" width="48" height="47" viewBox="0 0 48 47">
  <defs>
    <style>
      .cls-1 {
        fill: #ddd;
        fill-rule: evenodd;
      }
    </style>
  </defs>
  <path id="improved-non-active.png_improved-non-active.svg" data-name="improved-non-active.png,improved-non-active.svg" class="cls-1" d="M262.621,259.018H285V291h-2.035l-43.237,0a1,1,0,0,1-1.236-.782,0.9,0.9,0,0,1,.913-1.095c0.912-.019,1.825-0.005,2.767-0.005a2.065,2.065,0,0,0,.067-0.352c0-1.117.016-2.234-.012-3.35a0.656,0.656,0,0,0-.306-0.506c-3.937-1.254-5.644-4.293-4.637-8.321a19.756,19.756,0,0,1,4.456-7.95c0.441-.519.923-1,1.466-1.587,0.766,0.845,1.532,1.615,2.215,2.455a17.6,17.6,0,0,1,3.751,7.211c0.673,2.974-.176,5.611-2.4,7.145a15.161,15.161,0,0,1-2.2,1.027,0.71,0.71,0,0,0-.394.307c-0.027,1.288-.017,2.576-0.017,3.887H260.7V245.89H240.223v20.985c0,0.157,0,.314,0,0.471a0.969,0.969,0,0,1-.978,1.075,0.945,0.945,0,0,1-.921-1.061c-0.015-1.47-.012-2.939-0.012-4.409l0-18.4V244h24.307v15.018Zm0.055,30.058h5.542v-9.739h9.354v9.738h5.518V260.927H262.676v28.149Zm-18.529-6.09a4.267,4.267,0,0,0,3.347-4.021,10.237,10.237,0,0,0-1.433-5.129,19.8,19.8,0,0,0-2.833-3.974,17.429,17.429,0,0,0-3.935,6.624,9.637,9.637,0,0,0-.319,2.943,4,4,0,0,0,3.268,3.516v-2.231c0-.921-0.014-1.841,0-2.761a1,1,0,0,1,.92-1.029,0.965,0.965,0,0,1,.972.963c0.024,0.272.01,0.548,0.01,0.822C244.147,280.115,244.147,281.521,244.147,282.986Zm25.992-1.732v7.811h5.482v-7.811h-5.482Zm-24.3-15.436c-0.582,0-1.164.008-1.745,0a1.008,1.008,0,0,1-1.128-.928,0.96,0.96,0,0,1,1.064-.983q1.862-.029,3.721,0a0.927,0.927,0,0,1,1,.915,0.95,0.95,0,0,1-1,.99C247.123,265.836,246.483,265.818,245.844,265.818Zm9.149,0c-0.582,0-1.164.009-1.745,0a0.984,0.984,0,0,1-1.092-.96,0.968,0.968,0,0,1,1.094-.951q1.8-.022,3.606,0a0.985,0.985,0,0,1,1.1.951,1.012,1.012,0,0,1-1.1.961C256.234,265.831,255.613,265.82,254.993,265.819Zm0,13.757c-0.6,0-1.2.013-1.8,0a0.968,0.968,0,0,1-1.039-.954,0.952,0.952,0,0,1,1.032-.953q1.832-.029,3.664,0a0.993,0.993,0,0,1,1.109.949,1.04,1.04,0,0,1-1.159.969c-0.311,0-.621,0-0.931,0H255Zm0.019-27.515c-0.6,0-1.2.012-1.8,0a0.98,0.98,0,0,1-1.057-.936,0.942,0.942,0,0,1,1.011-.972q1.918-.035,3.838.008a0.927,0.927,0,0,1,.95.916,0.98,0.98,0,0,1-.962.978c-0.658.028-1.318,0.006-1.977,0.006v0Zm-9.127,0c-0.62,0-1.241.013-1.861,0a1,1,0,0,1-1.061-.938,0.962,0.962,0,0,1,1.021-.974c1.259-.021,2.52-0.016,3.779.007a0.918,0.918,0,0,1,.99.925,0.954,0.954,0,0,1-1.008.979C247.131,252.076,246.51,252.06,245.89,252.061Zm-0.026,6.85c-0.639,0-1.279.013-1.918,0a0.936,0.936,0,0,1-.977-0.938,0.96,0.96,0,0,1,.989-0.939q1.918-.022,3.837,0a0.939,0.939,0,1,1-.012,1.878C247.144,258.923,246.5,258.911,245.864,258.911Zm9.2,0c-0.64,0-1.28.012-1.919,0a0.921,0.921,0,0,1-.991-0.918,0.948,0.948,0,0,1,1.02-.961q1.89-.018,3.78,0a0.963,0.963,0,0,1,1,.93,0.938,0.938,0,0,1-.97.948C256.345,258.925,255.705,258.911,255.066,258.911Zm-0.013,13.758c-0.639,0-1.279.012-1.919,0a0.913,0.913,0,0,1-.978-0.931,0.937,0.937,0,0,1,.975-0.946q1.918-.022,3.838,0a0.969,0.969,0,0,1,.989.942,0.95,0.95,0,0,1-.986.939c-0.639.018-1.279,0-1.919,0v0Zm22.462-6.8c0.582,0,1.164-.008,1.746,0a1.009,1.009,0,0,1,1.118.942,0.988,0.988,0,0,1-1.076.982q-1.833.027-3.667,0a0.969,0.969,0,1,1,.016-1.928C276.273,265.858,276.894,265.868,277.515,265.869ZM268.27,267.8c-0.6,0-1.2.013-1.8,0a0.965,0.965,0,0,1-1.055-.994,0.944,0.944,0,0,1,1.05-.932q1.832-.023,3.663,0a0.965,0.965,0,1,1,0,1.923c-0.62.019-1.24,0-1.86,0v0Zm9.194,4.973c0.62,0,1.241,0,1.862,0a0.942,0.942,0,1,1,.029,1.874q-1.862.015-3.724,0a0.949,0.949,0,1,1,.029-1.881c0.6,0,1.2,0,1.8,0v0Zm-9.168,1.882c-0.6,0-1.206,0-1.809,0a0.954,0.954,0,0,1-1.078-.961,0.933,0.933,0,0,1,1.051-.918q1.808-.007,3.617,0a0.923,0.923,0,0,1,1.1.922,0.935,0.935,0,0,1-1.128.954c-0.584,0-1.168,0-1.751,0v0Z" transform="translate(-237 -244)"/>
</svg>
