<svg id="land-none-active.png_land-none-active.svg" data-name="land-none-active.png, land-none-active.svg" xmlns="http://www.w3.org/2000/svg" width="48" height="44" viewBox="0 0 48 44">
  <defs>
    <style>
      .cls-1 {
        fill: #007f65;
        fill-opacity: 0;
        stroke: #ddd;
        stroke-linejoin: round;
        stroke-width: 2px;
      }

      .cls-2 {
        fill: #e2e2e2;
        fill-rule: evenodd;
      }
    </style>
  </defs>
  <circle class="cls-1" cx="38.5" cy="6.5" r="5.5"/>
  <path id="Rectangle_3_copy_2" data-name="Rectangle 3 copy 2" class="cls-2" d="M399,249h6l-1,2h-4Zm-20,0h11l-1,2h-9Zm12,6h6l1,2h-8Zm18.431,30.27a3.277,3.277,0,0,0,2.543-3.1,7.976,7.976,0,0,0-1.088-3.952,15.317,15.317,0,0,0-2.153-3.062,13.489,13.489,0,0,0-2.991,5.1,7.532,7.532,0,0,0-.242,2.268,3.065,3.065,0,0,0,2.483,2.709v-1.719c0-.709-0.01-1.418,0-2.127a0.765,0.765,0,0,1,.7-0.793,0.737,0.737,0,0,1,.738.742c0.019,0.209.008,0.422,0.008,0.633C409.431,283.057,409.431,284.141,409.431,285.27Zm-3.6,4.725,2.1,0a1.622,1.622,0,0,0,.051-0.271c0-.861.012-1.722-0.009-2.582a0.505,0.505,0,0,0-.232-0.39c-2.992-.966-4.29-3.308-3.524-6.412a15.283,15.283,0,0,1,3.386-6.125c0.335-.4.7-0.772,1.114-1.223,0.582,0.651,1.164,1.245,1.683,1.892a13.62,13.62,0,0,1,2.85,5.556,5.041,5.041,0,0,1-1.826,5.5,11.557,11.557,0,0,1-1.673.792,0.529,0.529,0,0,0-.3.237c-0.021.991-.013,1.984-0.013,3H422.01m-24.579-4.7a3.277,3.277,0,0,0,2.543-3.1,7.976,7.976,0,0,0-1.088-3.952,15.317,15.317,0,0,0-2.153-3.062,13.489,13.489,0,0,0-2.991,5.1,7.532,7.532,0,0,0-.242,2.268,3.065,3.065,0,0,0,2.483,2.709v-1.719c0-.709-0.01-1.418,0-2.127a0.765,0.765,0,0,1,.7-0.793,0.737,0.737,0,0,1,.738.742c0.019,0.209.008,0.422,0.009,0.633v3.3Zm-3.6,4.725,2.1,0a1.622,1.622,0,0,0,.051-0.271c0-.861.012-1.722-0.009-2.582a0.505,0.505,0,0,0-.232-0.39c-2.992-.966-4.29-3.308-3.524-6.412a15.283,15.283,0,0,1,3.386-6.125c0.335-.4.7-0.772,1.114-1.223,0.582,0.651,1.164,1.245,1.683,1.892a13.632,13.632,0,0,1,2.85,5.556,5.041,5.041,0,0,1-1.826,5.5,11.557,11.557,0,0,1-1.673.792,0.529,0.529,0,0,0-.3.237c-0.021.991-.013,1.984-0.013,3H410.01m-7.334-.89h5.542m-24.071-6.09a4.267,4.267,0,0,0,3.347-4.021,10.237,10.237,0,0,0-1.433-5.129,19.8,19.8,0,0,0-2.833-3.974,17.429,17.429,0,0,0-3.935,6.624,9.637,9.637,0,0,0-.319,2.943,4,4,0,0,0,3.268,3.516v-2.231c0-.921-0.014-1.841,0-2.761a1,1,0,0,1,.92-1.029,0.965,0.965,0,0,1,.972.963c0.024,0.272.01,0.548,0.01,0.822C384.147,280.115,384.147,281.521,384.147,282.986Zm25.992,6.079h5.482l1.951,0.01h5.518L425,291l-45.272,0a1,1,0,0,1-1.236-.782,0.9,0.9,0,0,1,.913-1.095c0.912-.019,1.825-0.005,2.767-0.005a2.168,2.168,0,0,0,.067-0.352c0-1.117.016-2.234-.012-3.35a0.656,0.656,0,0,0-.306-0.506c-3.937-1.254-5.644-4.293-4.637-8.321a19.756,19.756,0,0,1,4.456-7.95c0.441-.519.923-1,1.466-1.587,0.766,0.845,1.532,1.615,2.215,2.455a17.6,17.6,0,0,1,3.751,7.211c0.673,2.974-.176,5.611-2.4,7.145a15.161,15.161,0,0,1-2.2,1.027,0.71,0.71,0,0,0-.394.307c-0.027,1.288-.017,2.576-0.017,3.887H400.7" transform="translate(-377 -247)"/>
</svg>
